<svg width="16" height="15" viewBox="0 0 16 15" fill="none" xmlns="http://www.w3.org/2000/svg">
<path d="M5.75 7.5C5.94891 7.5 6.13968 7.57902 6.28033 7.71967C6.42098 7.86032 6.5 8.05109 6.5 8.25V9.75C6.5 9.94891 6.42098 10.1397 6.28033 10.2803C6.13968 10.421 5.94891 10.5 5.75 10.5C5.55109 10.5 5.36032 10.421 5.21967 10.2803C5.07902 10.1397 5 9.94891 5 9.75V8.25C5 8.05109 5.07902 7.86032 5.21967 7.71967C5.36032 7.57902 5.55109 7.5 5.75 7.5ZM11 8.25C11 8.05109 10.921 7.86032 10.7803 7.71967C10.6397 7.57902 10.4489 7.5 10.25 7.5C10.0511 7.5 9.86032 7.57902 9.71967 7.71967C9.57902 7.86032 9.5 8.05109 9.5 8.25V9.75C9.5 9.94891 9.57902 10.1397 9.71967 10.2803C9.86032 10.421 10.0511 10.5 10.25 10.5C10.4489 10.5 10.6397 10.421 10.7803 10.2803C10.921 10.1397 11 9.94891 11 9.75V8.25Z" fill="white"/>
<path d="M6.25 0H8.25C8.44891 0 8.63968 0.0790176 8.78033 0.21967C8.92098 0.360322 9 0.551088 9 0.75V3.5H12.25C12.8467 3.5 13.419 3.73705 13.841 4.15901C14.2629 4.58097 14.5 5.15326 14.5 5.75V8H15.25C15.4489 8 15.6397 8.07902 15.7803 8.21967C15.921 8.36032 16 8.55109 16 8.75C16 8.94891 15.921 9.13968 15.7803 9.28033C15.6397 9.42098 15.4489 9.5 15.25 9.5H14.5V12.25C14.5 12.8467 14.2629 13.419 13.841 13.841C13.419 14.2629 12.8467 14.5 12.25 14.5H3.75C3.15326 14.5 2.58097 14.2629 2.15901 13.841C1.73705 13.419 1.5 12.8467 1.5 12.25V9.5H0.75C0.551088 9.5 0.360322 9.42098 0.21967 9.28033C0.0790176 9.13968 0 8.94891 0 8.75C0 8.55109 0.0790176 8.36032 0.21967 8.21967C0.360322 8.07902 0.551088 8 0.75 8H1.5V5.75C1.5 5.15326 1.73705 4.58097 2.15901 4.15901C2.58097 3.73705 3.15326 3.5 3.75 3.5H7.5V1.5H6.25C6.05109 1.5 5.86032 1.42098 5.71967 1.28033C5.57902 1.13968 5.5 0.948912 5.5 0.75C5.5 0.551088 5.57902 0.360322 5.71967 0.21967C5.86032 0.0790176 6.05109 0 6.25 0ZM3 5.75V12.25C3 12.664 3.336 13 3.75 13H12.25C12.4489 13 12.6397 12.921 12.7803 12.7803C12.921 12.6397 13 12.4489 13 12.25V5.75C13 5.55109 12.921 5.36032 12.7803 5.21967C12.6397 5.07902 12.4489 5 12.25 5H3.75C3.55109 5 3.36032 5.07902 3.21967 5.21967C3.07902 5.36032 3 5.55109 3 5.75Z" fill="white"/>
</svg>
