<svg width="24" height="24" viewBox="0 0 24 24" fill="none" xmlns="http://www.w3.org/2000/svg">
<path d="M14.7104 6.71041C14.6179 6.61771 14.508 6.54416 14.387 6.49398C14.2661 6.4438 14.1364 6.41797 14.0054 6.41797C13.8744 6.41797 13.7448 6.4438 13.6238 6.49398C13.5028 6.54416 13.3929 6.61771 13.3004 6.71041L8.71041 11.3004C8.61771 11.3929 8.54416 11.5028 8.49398 11.6238C8.4438 11.7448 8.41797 11.8744 8.41797 12.0054C8.41797 12.1364 8.4438 12.2661 8.49398 12.387C8.54416 12.508 8.61771 12.6179 8.71041 12.7104L13.3004 17.3004C13.393 17.393 13.5029 17.4664 13.6239 17.5165C13.7448 17.5666 13.8745 17.5924 14.0054 17.5924C14.1363 17.5924 14.266 17.5666 14.387 17.5165C14.5079 17.4664 14.6178 17.393 14.7104 17.3004C14.803 17.2078 14.8764 17.0979 14.9265 16.977C14.9766 16.856 15.0024 16.7263 15.0024 16.5954C15.0024 16.4645 14.9766 16.3348 14.9265 16.2139C14.8764 16.0929 14.803 15.983 14.7104 15.8904L10.8304 12.0004L14.7104 8.12041C15.1004 7.73041 15.0904 7.09041 14.7104 6.71041Z" fill="#526069"/>
</svg>
