<?xml version="1.0" encoding="utf-8"?>
<!-- Generator: Adobe Illustrator 27.5.0, SVG Export Plug-In . SVG Version: 6.00 Build 0)  -->
<svg version="1.1" xmlns="http://www.w3.org/2000/svg" xmlns:xlink="http://www.w3.org/1999/xlink" x="0px" y="0px"
	 viewBox="0 0 500 500" style="enable-background:new 0 0 500 500;" xml:space="preserve">
<g id="BACKGROUND">
	<rect style="fill:#FFFFFF;" width="500" height="500"/>
</g>
<g id="OBJECTS">
	<path style="fill:#ECE1FD;" d="M170.45,425.59c-18.198-2.082-36.554-4.474-53.727-10.846
		c-17.173-6.372-33.283-17.133-42.851-32.752c-9.568-15.62-11.546-36.516-2.117-52.22c6.672-11.111,18.089-18.615,25.449-29.283
		c6.779-9.826,9.775-22.194,8.243-34.033c-2.602-20.116-17.575-38.46-14.435-58.499c2.762-17.628,19.025-30.2,35.769-36.365
		c7.254-2.671,14.995-4.519,22.684-3.721c10.422,1.081,19.662,6.84,28.933,11.721c11.79,6.207,24.224,11.189,37.038,14.839
		c6.847,1.951,14.077,3.528,21.041,2.047c8.624-1.834,15.542-8.033,22.197-13.815c13.366-11.614,27.601-22.575,43.871-29.563
		c16.27-6.988,34.882-9.741,51.834-4.629c5.849,1.764,11.614,4.583,15.443,9.343c4.593,5.71,5.796,13.374,6.433,20.674
		c1.298,14.881,0.922,29.908-1.118,44.705c-0.744,5.395-1.7,10.96-0.269,16.214c2.174,7.983,9.257,13.44,15.383,19.002
		c35.954,32.643,47.936,88.977,28.38,133.427c-6.567,14.927-17.446,29.291-33.091,33.894c-0.225,0.066-2.387,0.634-2.553,0.799
		L170.45,425.59z"/>
	<g>
		<g>
			<path style="fill:#BF5A66;" d="M135.135,425.34h41.798c1.799-6.234-1.497-11.642-5.639-16.637
				c-4.142-4.994-10.039-8.26-16.151-10.438c-3.07-1.094-6.319-1.992-8.823-4.078c-4.776-3.979-5.463-11.006-5.118-17.212
				c0.345-6.207,1.295-12.769-1.39-18.376c-2.415-5.044-7.383-8.373-12.455-10.729c-5.072-2.356-10.498-4.008-15.236-6.979
				c-7.612-4.773-13.001-12.946-14.39-21.823c-1.004-6.422-0.024-13.14-1.916-19.358c-2.742-9.012-10.865-15.155-18.569-20.575
				c0.652,0.192,0.484,0.666,0.885,1.215c3.642,4.988,2.908,11.97,0.735,17.751c-2.173,5.781-5.603,11.099-7.061,17.101
				c-1.97,8.111,0.03,17.089,5.256,23.597c4.843,6.032,12.162,9.927,16.146,16.558c2.446,4.07,3.432,8.997,2.742,13.696
				c-0.832,5.667-4.003,11.209-2.741,16.796c0.548,2.427,1.901,4.593,3.386,6.589C106.232,405.394,124.293,413.376,135.135,425.34z"
				/>
			<path style="fill:#D9717E;" d="M112.088,425.149h38.248c-0.408-4.59-3.507-9.365-7.275-12.018s-8.285-4.033-12.8-4.955
				c-5.605-1.145-11.764-1.855-15.849-5.86c-4.233-4.151-4.973-10.672-4.724-16.595c0.248-5.923,1.213-12.009-0.533-17.675
				c-0.996-3.233-2.828-6.141-4.809-8.883c-1.604-2.22-3.338-4.379-5.464-6.106c-3.862-3.137-8.745-4.649-13.373-6.475
				c-5.183-2.044-10.182-4.557-14.915-7.497c-5.751-3.573-11.494-8.373-12.78-15.02c-1.118-5.777,1.386-11.546,2.818-17.254
				c1.432-5.708,1.353-12.755-3.352-16.29c1.499,3.615,0.781,7.454-0.968,10.955c-1.749,3.5-4.355,6.483-6.668,9.64
				c-6.019,8.218-10.202,18.812-7.232,28.557c2.67,8.762,10.377,14.822,16.867,21.285c4.521,4.501,8.891,10.456,7.548,16.693
				c-0.511,2.371-1.812,4.485-2.694,6.744c-3.11,7.963-0.336,17.829,6.467,23.005c5.889,4.481,13.663,5.308,20.93,6.701
				C98.799,415.494,108.366,418.753,112.088,425.149z"/>
			<path style="fill:#D9717E;" d="M131.481,421.363c-4.015-9.442-15.3-11.022-24.212-12.251c-4.862-0.671-9.818-1.519-14.102-4.058
				c-4.309-2.553-6.872-6.612-7.422-11.59c-0.593-5.379,0.673-10.7,1.01-16.048c0.328-5.195-0.588-10.117-3.235-14.631
				c-4.981-8.494-13.647-13.649-20.326-20.611c-3.896-4.061-6.833-8.781-7.959-14.348c-1.127-5.572-0.431-11.483,2.014-16.617
				c0.551-1.156-1.173-2.172-1.727-1.009c-4.245,8.913-3.62,19.725,1.862,27.979c5.588,8.413,14.685,13.477,21.158,21.087
				c3.361,3.951,5.872,8.612,6.232,13.864c0.387,5.634-1.096,11.175-1.179,16.794c-0.071,4.799,0.927,9.647,4.189,13.325
				c2.997,3.378,7.34,5.345,11.639,6.463c6.074,1.58,12.457,1.559,18.487,3.347c4.959,1.47,9.75,4.392,11.844,9.315
				C130.257,423.553,131.98,422.535,131.481,421.363z"/>
			<path style="fill:#D9717E;" d="M136.526,400.432c-4.517-2.21-9.173-4.889-12.089-9.12c-3.013-4.372-3.296-9.679-3.266-14.819
				c0.029-5.042,0.359-10.283-1.268-15.14c-1.526-4.555-4.744-8.07-8.534-10.901c-7.459-5.573-18.003-8.635-22.543-17.398
				c-2.984-5.759-1.597-12.465-0.838-18.583c0.694-5.596,0.838-11.674-2.371-16.579c-0.702-1.073-2.434-0.072-1.727,1.009
				c6.242,9.541-1.015,21.491,1.872,31.791c2.665,9.507,12.344,13.828,20.089,18.498c4.151,2.503,8.324,5.445,10.789,9.732
				c2.596,4.514,2.617,9.837,2.561,14.895c-0.055,4.943-0.254,10.125,1.577,14.815c1.778,4.557,5.324,7.972,9.378,10.573
				c9.007,5.78,24.141,8.689,25.946,21.313c0.182,1.269,2.109,0.729,1.929-0.532C156.475,409.12,145.135,404.644,136.526,400.432z"
				/>
		</g>
		<g>
			<g>
				<path style="fill:#BF5A66;" d="M334.114,424.236c-0.064-8.867-3.017-17.878-0.746-26.449
					c3.767-14.219,19.945-21.253,27.518-33.862c3.268-5.441,4.825-11.892,4.399-18.224c-0.345-5.132-1.953-10.166-1.78-15.307
					c0.172-5.102,2.168-10.124,5.546-13.951c7.549-8.554,21.23-10.935,26.493-21.058c1.359-2.614,2.01-5.533,3.155-8.247
					c1.145-2.714,2.966-5.366,5.718-6.417c4.553-1.739,9.481,1.537,12.656,5.235c3.477,4.049,6.114,8.916,7.012,14.176
					c0.898,5.261-0.049,10.922-3.107,15.295c-1.852,2.648-4.384,4.741-6.441,7.233c-4.635,5.615-6.652,13.305-5.371,20.473
					c0.751,4.201,2.568,8.225,2.674,12.49c0.108,4.344-1.567,8.51-3.214,12.53c-1.474,3.6-2.993,7.273-5.558,10.197
					c-3.162,3.604-7.616,5.748-11.587,8.435c-5.259,3.559-9.816,8.232-12.893,13.787c-3.917,7.074-5.314,15.509-3.888,23.468
					L334.114,424.236z"/>
				<path style="fill:#D9717E;" d="M367.344,424.536h42.911c-0.922-4.801,1.918-9.676,5.735-12.73
					c3.817-3.054,8.517-4.73,12.984-6.713c4.468-1.984,8.963-4.483,11.646-8.569c2.25-3.426,2.991-7.651,2.969-11.75
					c-0.018-3.367-0.518-6.732-1.48-9.959c-1.701-5.708-4.872-11.261-4.292-17.188c0.657-6.708,5.878-11.888,9.919-17.283
					c4.772-6.373,8.187-13.758,9.95-21.522c0.834-3.673,1.297-7.539,0.356-11.186c-2.136-8.276-10.776-13.336-13.989-21.256
					c-2.125-5.239-1.957-11.796-6.216-15.514c-1.994-1.741-4.675-2.519-7.314-2.729c-1.601-0.128-3.26-0.055-4.733,0.582
					c-4.894,2.118-5.316,9.031-3.558,14.066c1.512,4.331,4.02,8.261,5.523,12.595c1.504,4.334,1.861,9.462-0.756,13.229
					c-1.392,2.003-3.476,3.409-5.586,4.633c-5.037,2.923-10.585,5.143-14.851,9.106c-6.333,5.884-8.969,15.449-6.544,23.746
					c1.903,6.512,6.567,12.014,8.059,18.632c1.223,5.426,0.114,11.337-2.992,15.95c-4.537,6.737-12.487,10.11-19.495,14.216
					c-5.247,3.074-10.238,6.812-13.755,11.773C368.318,411.627,366.037,418.597,367.344,424.536z"/>
				<path style="fill:#D9717E;" d="M436.37,317.031c4.685-9.385,2.823-21.312-4.347-28.925c-0.884-0.939-2.297,0.477-1.414,1.414
					c6.473,6.873,8.29,17.782,4.128,26.314c-4.694,9.622-14.914,15.126-19.43,24.903c-2.169,4.695-2.496,9.641-0.848,14.553
					c1.68,5.005,4.728,9.446,6.181,14.536c2.988,10.471-0.773,21.903-9.326,28.603c-2.359,1.848-5.011,3.226-7.82,4.25
					c-2.789,1.017-5.66,1.817-8.349,3.094c-4.737,2.25-9.017,6.831-8.073,12.434c0.213,1.266,2.141,0.729,1.928-0.532
					c-0.98-5.818,5.096-9.53,9.702-11.228c4.836-1.783,9.584-3.162,13.724-6.37c8.315-6.441,12.476-16.968,10.884-27.363
					c-0.817-5.336-3.475-9.917-5.656-14.768c-1.118-2.486-2.083-5.13-2.273-7.87c-0.19-2.737,0.389-5.453,1.484-7.958
					C421.21,332.183,431.562,326.664,436.37,317.031z"/>
				<path style="fill:#D9717E;" d="M409.712,296.908c-0.255-1.261-2.183-0.727-1.929,0.532c1.798,8.906-1.853,18.571-9.156,23.999
					c-6.491,4.824-16.025,7.744-17.785,16.73c-1.011,5.161,0.644,10.363,2.272,15.213c1.67,4.971,3.543,10.623,1.68,15.807
					c-1.554,4.323-5.532,7.052-9.254,9.394c-3.813,2.399-7.584,4.717-10.782,7.934c-7.286,7.328-11.561,17.468-11.638,27.804
					c-0.01,1.287,1.99,1.289,2,0c0.071-9.555,3.918-18.927,10.514-25.837c3.205-3.357,7.018-5.723,10.916-8.174
					c3.526-2.218,7.157-4.724,9.218-8.456c5.575-10.092-3.36-20.404-3.238-30.643c0.119-10.027,10.348-13.04,17.106-18.044
					C407.713,317.185,411.7,306.757,409.712,296.908z"/>
			</g>
		</g>
	</g>
	<g>
		<g>
			<polygon style="fill:#665779;" points="286.909,420.79 220.24,420.79 226.316,393.616 228.039,385.894 232.153,367.497 
				275.003,367.497 279.11,385.894 280.84,393.616 			"/>
			<path style="fill:#665779;" d="M315.374,423.697h-121.14c-1.605,0-2.906-1.301-2.906-2.906l0,0c0-1.605,1.301-2.906,2.906-2.906
				h121.14c1.605,0,2.906,1.301,2.906,2.906l0,0C318.28,422.396,316.979,423.697,315.374,423.697z"/>
			<path style="fill:#665779;" d="M394.264,385.894H117.325c-5.04,0-9.126-4.086-9.126-9.126v-183.57
				c0-5.04,4.086-9.126,9.126-9.126h276.939c5.04,0,9.126,4.086,9.126,9.126v183.57
				C403.389,381.808,399.304,385.894,394.264,385.894z"/>
			<path style="fill:#EFC2C7;" d="M392,197.67v146.82c0,2.83-2.29,5.12-5.12,5.12H122.72c-2.82,0-5.11-2.29-5.11-5.12V197.67
				c0-2.83,2.29-5.12,5.11-5.12h264.16C389.71,192.55,392,194.84,392,197.67z"/>
			<path style="fill:#EFC2C7;" d="M391.998,197.666v3.298H117.613v-3.298c0-2.827,2.286-5.113,5.106-5.113h264.166
				C389.712,192.553,391.998,194.839,391.998,197.666z"/>
			<g>
				<circle style="fill:#FFFFFF;" cx="124.09" cy="196.759" r="1.257"/>
				<circle style="fill:#FFFFFF;" cx="128.264" cy="196.759" r="1.257"/>
				<circle style="fill:#FFFFFF;" cx="132.439" cy="196.759" r="1.257"/>
			</g>
			<polygon style="fill:#665779;" points="280.84,393.616 226.316,393.616 228.039,385.894 279.11,385.894 			"/>
			<g style="opacity:0.3;">
				<path style="fill:#FFFFFF;" d="M268.72,349.61h-31.36L117.61,207.24v-9.57c0-2.83,2.29-5.12,5.11-5.12h13.9L268.72,349.61z"/>
				<polygon style="fill:#FFFFFF;" points="354.57,349.61 333.4,349.61 201.3,192.55 222.47,192.55 				"/>
				<polygon style="fill:#FFFFFF;" points="326.35,349.61 279.05,349.61 146.94,192.55 194.25,192.55 				"/>
			</g>
		</g>
		<g>
			<g>
				<path style="fill:#D9717E;" d="M302.99,349.607H201.059c0.246-7.398,0.992-28.967,2.075-53.047
					c0.084-1.948,0.176-3.91,0.267-5.886c0.535-11.4,1.139-23.137,1.8-34.031c1.414-23.32,3.087-42.758,4.86-46.64
					c0.795-1.737,1.709-3.348,2.729-4.824c0.007-0.014,0.021-0.028,0.028-0.042c0.436-0.64,0.893-1.252,1.378-1.843
					c0.028-0.028,0.049-0.063,0.077-0.098c0.633-0.788,1.294-1.533,1.983-2.229c6.674-6.843,15.739-10.148,23.517-11.744
					c0.07-0.014,0.141-0.028,0.211-0.042c7.187-1.456,13.235-1.456,15.197-1.456c2.356,0,4.782,0.148,7.23,0.457h0.007
					c10.718,1.329,21.829,5.591,28.834,12.799c3.348,3.425,5.753,7.525,6.737,12.286c0.246,1.174,0.781,13.587,1.421,30.669
					c0.07,1.8,0.141,3.657,0.204,5.556c0.063,1.54,0.12,3.108,0.176,4.705c0.014,0.366,0.028,0.731,0.042,1.097
					c0.035,1.041,0.07,2.103,0.113,3.165c0.014,0.513,0.035,1.034,0.056,1.554c0,0.007,0,0.007,0,0.007
					c0.035,0.992,0.07,1.99,0.106,2.996c0.281,7.926,0.57,16.252,0.851,24.53c0.098,3.017,0.204,6.027,0.302,9.016
					C301.999,318.586,302.66,339.128,302.99,349.607z"/>
			</g>
			<g>
				<path style="fill:#433156;" d="M293.276,123.19c-0.172-2.382-0.883-5.041-2.938-6.15c2.502-3.853,3.81-8.634,3.051-13.202
					c-0.758-4.568-3.754-8.81-7.963-10.455c-3.572-1.396-7.593-0.871-11.25,0.267c-3.657,1.138-7.13,2.86-10.819,3.879
					c-2.434-2.294-6.268-1.713-9.405-0.66c-4.616,1.549-8.985,3.801-13.168,6.337c-3.03,1.837-6.005,3.858-8.381,6.526
					c-1.983,2.227-3.574,5.264-2.812,8.181c-1.613,1.141-2.432,3.206-2.534,5.218c-0.102,2.012,0.42,3.999,1.014,5.918
					c1.453,4.696,3.369,9.241,5.707,13.543c8.432,15.51,32.692,8.962,44.881,3.122c3.259-1.561,6.469-3.355,9.019-5.915
					C292.087,135.373,293.717,129.307,293.276,123.19z"/>
				<path style="fill:#ECB58C;" d="M238.488,134.782c1.115,20.956,1.545,58.272,1.545,58.272c5.971,7.518,23.402,3.685,22.563,0.986
					c-0.475-1.527-0.533-4.3-0.01-6.893c0.405-2.009,1.164-3.91,2.337-5.039c0.491-0.469,1.445-0.747,2.715-0.962
					c0.206-0.026,0.317-0.045,0.317-0.045c5.824-0.872,17.458-0.442,21.265-8.264c4.736-9.725,1.54-34.214-0.974-45.864
					c-1.445-6.663-8.721-15.176-20.677-15.384C252.948,111.331,237.362,113.696,238.488,134.782z"/>
				<path style="fill:#433156;" d="M281.994,119.553c-1.649,1.36-3.714,2.111-5.784,2.64c-7.44,1.9-15.527,1.155-22.495-2.072
					c0.591,0.886,0.545,2.15-0.11,2.99c-0.655,0.841-1.868,1.195-2.872,0.839c-0.144,7.764-2.6,15.471-6.974,21.887
					c-0.393,0.577-0.889,1.196-1.584,1.261c-0.439,0.041-0.865-0.156-1.241-0.386c-1.816-1.108-2.991-3.041-3.698-5.048
					c-0.707-2.007-1.012-4.129-1.506-6.198c-0.291-1.217-0.649-2.423-0.794-3.666c-0.187-1.602-0.013-3.229,0.32-4.807
					c0.778-3.685,2.411-7.139,4.314-10.389c1.368-2.338,2.934-4.643,5.145-6.208c2.148-1.52,4.75-2.233,7.308-2.849
					c5.762-1.388,11.709-2.431,17.6-1.783c3.327,0.366,6.619,1.314,9.559,2.928c2.09,1.148,6.107,3.362,5.555,6.173
					C284.37,116.723,283.463,118.341,281.994,119.553z"/>
				<g>
					<path style="fill:#E7998A;" d="M283.509,149.425c-0.004,1.226,1.596,2.225,3.573,2.23c1.977,0.006,3.583-0.983,3.586-2.209
						c0.004-1.226-1.596-2.224-3.573-2.23C285.118,147.21,283.512,148.199,283.509,149.425z"/>
					<path style="fill:#E7998A;" d="M265.341,149.371c-0.004,1.226,1.596,2.225,3.573,2.23c1.977,0.006,3.583-0.983,3.586-2.209
						c0.004-1.226-1.596-2.225-3.573-2.23C266.951,147.156,265.345,148.145,265.341,149.371z"/>
					<path style="fill:#C89978;" d="M277.771,151.74c0.469-0.169,0.976-0.207,1.437,0.005c0.429,0.198,0.704,0.656,0.764,1.113
						c0.062,0.471-0.079,0.954-0.359,1.337c-0.292,0.399-0.671,0.693-1.08,0.964c-0.22,0.146-0.568,0.049-0.689-0.183
						c-0.133-0.254-0.052-0.533,0.183-0.689c0.073-0.048,0.146-0.097,0.218-0.148c0.036-0.025,0.071-0.052,0.106-0.077
						c-0.087,0.063,0.027-0.022,0.036-0.029c0.131-0.107,0.252-0.226,0.361-0.355c0.01-0.014,0.025-0.032,0.033-0.045
						c0.024-0.035,0.047-0.071,0.068-0.107s0.039-0.075,0.06-0.112c0.004-0.008,0.004-0.006,0.007-0.011c0-0.002-0.001,0,0-0.004
						c0.023-0.078,0.045-0.154,0.065-0.232c0.001-0.014,0.002-0.027,0.003-0.041c0.002-0.037,0.001-0.074-0.001-0.112
						c0-0.007,0-0.008,0-0.013c-0.003-0.027-0.017-0.069-0.022-0.086c-0.007-0.026-0.017-0.057-0.029-0.084
						c-0.008-0.011-0.015-0.023-0.019-0.03c-0.005-0.008-0.029-0.041-0.044-0.066c-0.01-0.011-0.019-0.021-0.03-0.031
						c-0.008-0.008-0.016-0.015-0.024-0.022c-0.022-0.013-0.08-0.048-0.082-0.049c0.078,0.053,0.01,0.004-0.031-0.008
						c-0.031-0.009-0.064-0.017-0.096-0.021c-0.015,0-0.033,0-0.051,0c-0.041,0-0.083,0.003-0.124,0.004
						c-0.012,0-0.009-0.001-0.015-0.001c-0.006,0.002-0.004,0.002-0.017,0.005c-0.034,0.008-0.069,0.014-0.103,0.022
						c-0.089,0.021-0.175,0.049-0.26,0.08c-0.248,0.09-0.563-0.103-0.619-0.354C277.354,152.075,277.505,151.836,277.771,151.74z"/>
					<path style="fill:#362A14;" d="M272.518,143.571c-0.004,1.231,0.723,2.231,1.622,2.234c0.899,0.003,1.631-0.993,1.635-2.224
						c0.004-1.231-0.723-2.231-1.622-2.234C273.253,141.344,272.521,142.339,272.518,143.571z"/>
					<path style="fill:#433156;" d="M271.133,135.858c1.416-0.927,3.248-1.1,4.8-0.405c0.449,0.201,0.162,0.912-0.29,0.71
						c-1.289-0.577-2.845-0.481-4.033,0.296c-0.173,0.113-0.402,0.11-0.539-0.063C270.951,136.245,270.959,135.972,271.133,135.858z
						"/>
					<path style="fill:#433156;" d="M281.195,135.495c1.674-0.931,3.763-0.767,5.288,0.383c0.394,0.297-0.066,0.91-0.461,0.613
						c-1.324-0.998-3.077-1.096-4.521-0.292c-0.181,0.101-0.428-0.022-0.504-0.199C280.907,135.794,281.013,135.596,281.195,135.495
						z"/>
					<path style="fill:#362A14;" d="M282.128,143.599c-0.004,1.231,0.723,2.231,1.622,2.234c0.899,0.003,1.631-0.993,1.635-2.224
						c0.004-1.231-0.723-2.231-1.622-2.234C282.863,141.372,282.131,142.368,282.128,143.599z"/>
					<path style="fill:#CC7667;" d="M277.063,162.915c-2.791-0.057-5.472-1.231-7.42-3.227c-0.752-0.771-1.933,0.411-1.181,1.181
						c2.253,2.309,5.378,3.651,8.601,3.716C278.138,164.607,278.138,162.937,277.063,162.915z"/>
				</g>
				<g>
					<path style="fill:#ECB58C;" d="M242.164,144.312c-2.024-1.73-4.736-2.858-7.413-2.206c-2.637,0.642-4.458,2.797-4.728,5.49
						c-0.181,1.81,0.263,3.627,0.865,5.344c0.632,1.804,1.451,3.559,2.606,5.083c2.179,2.875,6.148,5.179,9.72,3.332
						c4.763-2.462,4.126-8.712,2.185-12.831C244.673,146.981,243.54,145.487,242.164,144.312z"/>
					<path style="fill:#C89978;" d="M235.342,146.587c2.322-0.073,4.182,1.554,5.426,3.358c1.289,1.867,2.13,4.011,2.454,6.257
						c0.086,0.594-0.831,0.778-0.917,0.182c-0.256-1.778-0.861-3.489-1.769-5.037c-0.025-0.004-0.048,0.001-0.074-0.007
						c-1.281-0.389-2.69-0.364-3.951,0.093c-0.237,0.086-0.506,0.03-0.625-0.214c-0.102-0.207-0.025-0.539,0.213-0.625
						c1.209-0.438,2.49-0.545,3.743-0.337c-1.098-1.499-2.609-2.8-4.57-2.738C234.674,147.537,234.746,146.605,235.342,146.587z"/>
				</g>
				<path style="fill:#F8E8D3;" d="M259.526,180.967c-3.998-0.196-7.944-1.002-11.712-2.347c-0.428-0.153-0.905,0.223-1.002,0.625
					c-0.117,0.48,0.202,0.852,0.625,1.003c3.916,1.397,8.007,2.185,12.159,2.388C260.667,182.689,260.592,181.02,259.526,180.967z"
					/>
			</g>
			<g>
				<path style="fill:#FFFFFF;" d="M308.532,349.607h-37.568l-4.67-53.047l-0.626-7.152l-0.556-6.28l-0.429-4.867l-0.007-0.098
					l-0.077-0.858l-0.844-9.613l1.104-14.1l4.065-51.971l-6.505-13.439h-0.007v-0.007h0.007c19.734,2.3,28.834,12.792,28.834,12.792
					s0,0.007,0,0.014c0.007,0.021,0.007,0.049,0.014,0.098l5.626,39.411l1.47,10.289l0.38,2.672l0.155,1.118l0.45,3.144l0.239,1.674
					l0.52,3.629l3.115,21.843l0.218,2.679l0.738,9.023L308.532,349.607z"/>
				<path style="fill:#FFFFFF;" d="M253.572,270.483l-0.155,1.751l-0.077,0.872l-0.028,0.337l-0.626,7.061l-0.949,10.682
					l-0.478,5.373l-4.705,53.047h-49.615l3.657-53.047l0.45-6.583l0.978-14.142l3.179-19.192l8.77-52.991
					c0-0.007,0-0.007,0.007-0.014c0.014-0.028,0.084-0.148,0.218-0.345c0.028-0.028,0.049-0.063,0.077-0.098
					c1.435-2.039,8.263-10.451,25.697-14.754l-0.197,0.781l-3.418,13.46l12.877,50.705L253.572,270.483z"/>
				<g>
					<path style="fill:#ECB58C;" d="M235.41,255.064c0,0-12.968-3.344-19.284-2.146c-6.316,1.198-7.464,15.021-6.216,15.869
						c1.248,0.848,25.999-2.395,25.999-2.395L235.41,255.064z"/>
					<path style="fill:#FFFFFF;" d="M291.251,200.964c10.629,10.303,43.778,58.47,30.941,80.476
						c-9.781,16.767-90.774-6.266-90.774-6.266s-1.408-11.994,1.996-22.057c0,0,60.314,1.147,61.679,0.2
						C296.889,252.07,291.251,200.964,291.251,200.964z"/>
					<path style="fill:#ECB58C;" d="M274.397,253.689h19.504c0,0,5.546-2.607,6.731-5.911c0.758-2.114-5.455-11.383-9.71-10.634
						C277.881,239.439,274.397,253.689,274.397,253.689z"/>
				</g>
				<path style="fill:#FFFFFF;" d="M216.258,200.964c-10.389,11.168-37.003,56.279-24.628,82.095
					c9.561,19.944,92.674,3.209,92.674,3.209s-67.635-27.824-68.189-28.759C215.167,255.908,216.258,200.964,216.258,200.964z"/>
				<g>
					<path style="fill:#E9E9E9;" d="M242.497,252.732c-3.218-8.666-6.436-17.333-9.655-25.999c-0.917-2.469-1.833-4.937-2.75-7.406
						c0.431-2.672,1.37-5.247,2.745-7.577c0.189-0.32-0.09-0.627-0.371-0.636l-3.723-1.477c1.348-4.893,2.695-9.786,4.042-14.68
						c0.143-0.518-0.653-0.772-0.796-0.253c-1.382,5.018-2.764,10.037-4.146,15.055c-0.063,0.229,0.055,0.439,0.272,0.525
						c1.251,0.496,2.502,0.993,3.754,1.489c-1.302,2.331-2.18,4.861-2.608,7.499c-0.007,0.024-0.013,0.048-0.014,0.075
						c-0.001,0.004-0.001,0.008-0.002,0.012c-0.021,0.135,0.018,0.236,0.088,0.305c3.197,8.61,6.395,17.22,9.592,25.831
						c0.919,2.476,1.839,4.952,2.758,7.428C241.868,253.419,242.684,253.236,242.497,252.732z"/>
					<path style="fill:#E9E9E9;" d="M277.65,208.094c0.137-0.156,0.131-0.34,0.053-0.484c-0.003-0.051-0.01-0.102-0.033-0.155
						c-2.167-5.011-4.334-10.023-6.501-15.034c-0.213-0.492-0.932-0.067-0.721,0.421c2.143,4.956,4.286,9.913,6.429,14.869
						c-1.569,1.783-3.137,3.567-4.706,5.35c-0.06,0.068-0.085,0.141-0.097,0.214c-0.186,0.103-0.297,0.32-0.142,0.546
						c1.529,2.227,3.059,4.455,4.588,6.682c-1.664,8.515-3.328,17.03-4.992,25.545l-1.439,7.365
						c-0.103,0.525,0.702,0.75,0.805,0.222c1.679-8.592,3.358-17.184,5.038-25.776l1.439-7.365c0.006-0.03-0.001-0.055,0-0.083
						c0.002-0.028,0.005-0.055-0.001-0.084c-0.013-0.068-0.041-0.127-0.082-0.178c-1.497-2.18-2.993-4.36-4.49-6.54
						C274.415,211.771,276.033,209.932,277.65,208.094z"/>
					<path style="fill:#E9E9E9;" d="M215.154,258.502c-0.066-0.24-0.29-0.324-0.514-0.292c-1.736,0.254-3.364,1.197-4.45,2.574
						c-0.139,0.177-0.173,0.418,0,0.591c0.145,0.145,0.45,0.178,0.59,0c1.011-1.283,2.465-2.123,4.081-2.359
						C215.086,258.983,215.208,258.7,215.154,258.502z"/>
					<path style="fill:#E9E9E9;" d="M214.576,256.318c-2.583-0.43-5.199-0.113-7.607,0.912c-0.493,0.21-0.068,0.93,0.422,0.721
						c2.181-0.929,4.626-1.217,6.964-0.828C214.88,257.211,215.106,256.406,214.576,256.318z"/>
					<path style="fill:#E9E9E9;" d="M301.152,260.338c-1.153-2.127-2.792-3.956-4.765-5.354c-0.184-0.13-0.464-0.033-0.571,0.15
						c-0.122,0.209-0.035,0.441,0.15,0.571c1.855,1.316,3.382,3.057,4.465,5.055C300.688,261.232,301.409,260.811,301.152,260.338z"
						/>
					<path style="fill:#E9E9E9;" d="M304.775,260.304c-1.37-2.848-3.537-5.27-6.2-6.968c-0.454-0.29-0.874,0.433-0.422,0.721
						c2.548,1.625,4.591,3.947,5.9,6.669C304.287,261.21,305.008,260.787,304.775,260.304z"/>
					<path style="fill:#E9E9E9;" d="M277.856,283.379c-11.079-5.086-22.158-10.171-33.305-15.107
						c-3.149-1.394-6.303-2.776-9.464-4.143c-0.488-0.211-0.914,0.508-0.422,0.721c11.189,4.839,22.294,9.869,33.378,14.943
						c3.131,1.433,6.261,2.87,9.391,4.306C277.92,284.323,278.345,283.604,277.856,283.379z"/>
					<path style="fill:#E9E9E9;" d="M231.75,318.46c-6.317-0.551-12.595-1.473-18.805-2.756c-0.525-0.108-0.749,0.696-0.222,0.805
						c6.282,1.298,12.637,2.228,19.027,2.786C232.285,319.342,232.282,318.506,231.75,318.46z"/>
					<path style="fill:#E9E9E9;" d="M297.05,314.621c-5.848,1.588-11.853,2.531-17.906,2.807c-0.535,0.024-0.538,0.86,0,0.835
						c6.126-0.279,12.211-1.23,18.128-2.837C297.79,315.285,297.57,314.48,297.05,314.621z"/>
				</g>
			</g>
		</g>
	</g>
	<g>
		<g>
			<path style="fill:#665779;" d="M176.635,139.625c3.41-3.73,5.427-8.321,5.427-13.29c0-12.481-12.695-22.598-28.355-22.598
				s-28.355,10.118-28.355,22.598c0,12.481,12.695,22.598,28.355,22.598c6.065,0,11.681-1.523,16.291-4.107l9.152,4.107
				L176.635,139.625z"/>
			<path style="fill:#D9717E;" d="M156.619,125.94c0,1.659-1.304,3.004-2.913,3.004c-1.609,0-2.913-1.345-2.913-3.004
				c0-1.659,1.304-3.004,2.913-3.004C155.315,122.936,156.619,124.281,156.619,125.94z"/>
			<path style="fill:#D9717E;" d="M166.236,125.94c0,1.659-1.304,3.004-2.913,3.004c-1.609,0-2.913-1.345-2.913-3.004
				c0-1.659,1.304-3.004,2.913-3.004C164.932,122.936,166.236,124.281,166.236,125.94z"/>
			<path style="fill:#D9717E;" d="M147.003,125.94c0,1.659-1.304,3.004-2.913,3.004c-1.609,0-2.913-1.345-2.913-3.004
				c0-1.659,1.304-3.004,2.913-3.004C145.698,122.936,147.003,124.281,147.003,125.94z"/>
		</g>
		<g>
			<g>
				<path style="fill:#AB6C81;" d="M137.335,293.117H90.628v-54.336c3.477-3.477,5.427-5.427,8.904-8.904h37.803V293.117z"/>
				<polygon style="fill:#D9717E;" points="90.628,238.781 99.48,238.781 99.48,229.877 				"/>
				<g>
					<rect x="96.208" y="244.602" style="fill:#D9717E;" width="35.547" height="0.62"/>
					<rect x="96.208" y="247.805" style="fill:#D9717E;" width="35.547" height="0.62"/>
					<rect x="96.208" y="251.008" style="fill:#D9717E;" width="35.547" height="0.62"/>
					<rect x="96.208" y="254.212" style="fill:#D9717E;" width="35.547" height="0.62"/>
					<rect x="96.208" y="257.415" style="fill:#D9717E;" width="35.547" height="0.62"/>
					<rect x="96.208" y="260.618" style="fill:#D9717E;" width="35.547" height="0.62"/>
					<rect x="96.208" y="263.822" style="fill:#D9717E;" width="35.547" height="0.62"/>
					<rect x="96.208" y="267.025" style="fill:#D9717E;" width="35.547" height="0.62"/>
					<rect x="96.208" y="270.228" style="fill:#D9717E;" width="35.547" height="0.62"/>
					<rect x="96.208" y="273.432" style="fill:#D9717E;" width="35.547" height="0.62"/>
					<rect x="96.208" y="276.635" style="fill:#D9717E;" width="35.547" height="0.62"/>
					<rect x="96.208" y="279.839" style="fill:#D9717E;" width="35.547" height="0.62"/>
				</g>
			</g>
		</g>
		<g>
			<circle style="fill:#F0C8B3;" cx="346.756" cy="79.836" r="24.827"/>
			<polygon style="fill:#BF5A66;" points="361.468,74.932 351.66,74.932 351.66,65.124 341.852,65.124 341.852,74.932 
				332.043,74.932 332.043,84.741 341.852,84.741 341.852,94.549 351.66,94.549 351.66,84.741 361.468,84.741 			"/>
		</g>
		<g>
			
				<ellipse transform="matrix(0.1614 -0.9869 0.9869 0.1614 206.087 561.412)" style="fill:#665779;" cx="433.397" cy="159.438" rx="24.827" ry="24.827"/>
			<path style="fill:#F0C8B3;" d="M443.609,152.732l-3.345,3.74v-2.811c0-0.651-0.528-1.179-1.179-1.179h-18.628
				c-0.651,0-1.179,0.528-1.179,1.179v11.554c0,0.651,0.528,1.179,1.179,1.179h18.628c0.651,0,1.179-0.528,1.179-1.179v-2.811
				l3.345,3.74c0.143,0.159,0.346,0.251,0.56,0.251h2.594c0.415,0,0.752-0.337,0.752-0.752v-6.204v-6.205
				c0-0.415-0.337-0.752-0.752-0.752h-2.594C443.956,152.482,443.752,152.573,443.609,152.732z"/>
		</g>
		<g>
			<path style="fill:#D9717E;" d="M383.445,286.124L383.445,286.124c-6.193-6.193-16.235-6.193-22.428,0l-1.009,1.009l-1.009-1.009
				c-6.193-6.193-16.235-6.193-22.428,0v0c-6.193,6.193-6.193,16.235,0,22.428l21.868,21.868c0.867,0.867,2.273,0.867,3.14,0
				l21.868-21.868C389.639,302.358,389.639,292.317,383.445,286.124z"/>
			<path style="fill:#FFFFFF;" d="M354.552,317.923c-0.179,0-0.27-0.052-0.346-0.455h-0.031c0-0.009,0.004-0.041,0.013-0.099
				c-0.063-0.391-0.121-1.057-0.218-2.183l-0.881-10.309l-0.457,1.425c-0.065,0.203-0.249,0.339-0.475,0.31
				c-0.211-0.021-0.379-0.188-0.402-0.399l-0.416-3.856l-2.596,13.648c-0.04,0.212-0.226,0.366-0.442,0.366
				c-0.002,0-0.004,0-0.005,0c-0.219-0.003-0.404-0.162-0.439-0.377l-3.237-19.654l-2.001,9.848
				c-0.043,0.21-0.228,0.361-0.441,0.361h-4.643c-0.249,0-0.45-0.201-0.45-0.45c0-0.249,0.201-0.45,0.45-0.45h4.275l2.415-11.886
				c0.043-0.21,0.228-0.361,0.441-0.361c0.003,0,0.005,0,0.009,0c0.217,0.004,0.4,0.163,0.435,0.377l3.222,19.565l2.688-14.126
				c0.042-0.219,0.247-0.368,0.461-0.366c0.223,0.01,0.405,0.18,0.429,0.402l0.513,4.752l0.495-1.544
				c0.066-0.205,0.259-0.331,0.48-0.31c0.213,0.025,0.38,0.196,0.397,0.41c0.27,3.178,0.696,8.192,0.981,11.502
				c0.724-3.998,2.101-11.501,4.116-22.445c0.04-0.218,0.221-0.381,0.457-0.368c0.222,0.007,0.406,0.176,0.433,0.396l2.669,22.225
				l1.752-13.282c0.029-0.22,0.214-0.386,0.435-0.391c0.004,0,0.008,0,0.011,0c0.217,0,0.404,0.155,0.443,0.369l0.874,4.777h1.928
				l1.625-10.885c0.034-0.227,0.241-0.377,0.463-0.383c0.229,0.01,0.416,0.19,0.432,0.419l1.16,16.576l1.456-5.393
				c0.05-0.187,0.215-0.321,0.408-0.332c0.193-0.021,0.372,0.102,0.444,0.282l0.616,1.54l1.277-11.146
				c0.025-0.222,0.211-0.392,0.434-0.399c0.228,0.017,0.419,0.153,0.457,0.374l1.617,9.348h3.793c0.249,0,0.45,0.201,0.45,0.45
				s-0.201,0.45-0.45,0.45h-4.172c-0.219,0-0.406-0.157-0.444-0.374l-1.147-6.633l-1.123,9.805
				c-0.024,0.205-0.184,0.368-0.388,0.395c-0.212,0.034-0.402-0.088-0.478-0.279l-0.778-1.944l-1.802,6.672
				c-0.056,0.213-0.249,0.348-0.478,0.332c-0.218-0.022-0.389-0.198-0.405-0.417l-1.059-15.14l-1.075,7.2
				c-0.033,0.22-0.222,0.383-0.445,0.383h-2.691c-0.217,0-0.404-0.156-0.443-0.369l-0.426-2.333l-1.846,13.988
				c-0.03,0.224-0.221,0.391-0.447,0.391c-0.001,0-0.002,0-0.003,0c-0.227-0.002-0.418-0.171-0.444-0.396l-2.742-22.831
				c-1.659,9.015-4.111,22.373-4.169,22.82c0,0.241-0.187,0.396-0.429,0.406C354.611,317.921,354.58,317.923,354.552,317.923z"/>
		</g>
	</g>
	<path style="fill:#433156;" d="M430.106,430.279H77.05c-1.817,0-3.291-1.473-3.291-3.291l0,0c0-1.817,1.473-3.291,3.291-3.291
		h353.056c1.817,0,3.291,1.473,3.291,3.291l0,0C433.397,428.805,431.923,430.279,430.106,430.279z"/>
	<g>
		<g>
			<path style="fill:#E5AE94;" d="M182.652,423.697H75.517c-1.275,0-2.023-1.034-1.671-2.309l18.956-68.568
				c0.353-1.275,1.672-2.309,2.947-2.309h107.135c1.275,0,2.023,1.034,1.671,2.309l-18.956,68.568
				C185.246,422.664,183.927,423.697,182.652,423.697z"/>
			<path style="fill:#F0C8B3;" d="M202.884,423.697H95.75c-1.275,0-2.309-1.034-2.309-2.309v-68.568
				c0-1.275,1.034-2.309,2.309-2.309h107.135c1.275,0,2.309,1.034,2.309,2.309v68.568
				C205.193,422.664,204.16,423.697,202.884,423.697z"/>
			<path style="fill:#E5AE94;" d="M102.419,341.979l-2.011,0.002c-1.369,0.001-2.479,1.113-2.477,2.482l0.007,7.64
				c0.001,1.37,1.113,2.479,2.482,2.477l2.011-0.002c1.37-0.001,2.479-1.113,2.477-2.482l-0.007-7.64
				C104.9,343.087,103.789,341.978,102.419,341.979z"/>
			<path style="fill:#E5AE94;" d="M114.394,341.968l-2.011,0.002c-1.369,0.001-2.479,1.113-2.477,2.482l0.008,7.64
				c0.001,1.369,1.113,2.479,2.482,2.477l2.011-0.002c1.369-0.001,2.479-1.113,2.477-2.482l-0.007-7.64
				C116.874,343.075,115.763,341.966,114.394,341.968z"/>
			<path style="fill:#E5AE94;" d="M126.368,341.956l-2.011,0.002c-1.369,0.001-2.479,1.113-2.477,2.482l0.007,7.64
				c0.001,1.37,1.113,2.479,2.482,2.477l2.011-0.002c1.369-0.001,2.479-1.113,2.477-2.482l-0.007-7.64
				C128.849,343.064,127.737,341.954,126.368,341.956z"/>
			<path style="fill:#E5AE94;" d="M138.342,341.944l-2.011,0.002c-1.369,0.001-2.479,1.113-2.477,2.482l0.007,7.64
				c0.001,1.37,1.113,2.479,2.482,2.477l2.011-0.002c1.37-0.001,2.479-1.113,2.477-2.482l-0.008-7.64
				C140.823,343.052,139.712,341.943,138.342,341.944z"/>
			<path style="fill:#E5AE94;" d="M150.316,341.932l-2.01,0.002c-1.37,0.001-2.479,1.113-2.477,2.482l0.007,7.64
				c0.001,1.37,1.113,2.479,2.482,2.477l2.01-0.002c1.37-0.001,2.479-1.113,2.477-2.482l-0.008-7.64
				C152.797,343.04,151.686,341.931,150.316,341.932z"/>
			<path style="fill:#E5AE94;" d="M162.29,341.92l-2.011,0.002c-1.37,0.001-2.479,1.113-2.477,2.482l0.007,7.64
				c0.001,1.37,1.113,2.479,2.482,2.477l2.011-0.002c1.37-0.001,2.479-1.113,2.477-2.482l-0.007-7.64
				C164.771,343.028,163.66,341.919,162.29,341.92z"/>
			<path style="fill:#E5AE94;" d="M174.265,341.909l-2.011,0.002c-1.37,0.001-2.479,1.113-2.477,2.482l0.008,7.64
				c0.001,1.369,1.113,2.479,2.482,2.477l2.011-0.002c1.37-0.001,2.479-1.113,2.477-2.482l-0.007-7.64
				C176.745,343.016,175.634,341.907,174.265,341.909z"/>
			<path style="fill:#E5AE94;" d="M186.239,341.897l-2.011,0.002c-1.37,0.001-2.479,1.113-2.477,2.482l0.007,7.64
				c0.001,1.37,1.113,2.479,2.482,2.477l2.011-0.002c1.37-0.001,2.479-1.113,2.477-2.482l-0.008-7.64
				C188.72,343.005,187.608,341.896,186.239,341.897z"/>
			<path style="fill:#E5AE94;" d="M198.213,341.885l-2.011,0.002c-1.369,0.001-2.479,1.113-2.477,2.482l0.007,7.64
				c0.001,1.37,1.113,2.479,2.482,2.477l2.011-0.002c1.37-0.001,2.479-1.113,2.477-2.482l-0.008-7.64
				C200.694,342.993,199.582,341.884,198.213,341.885z"/>
			<g>
				<path style="fill:#D9717E;" d="M114.963,376.574h-10.165c-0.539,0-0.975-0.437-0.975-0.975v-10.165
					c0-0.539,0.437-0.975,0.975-0.975h10.165c0.539,0,0.975,0.437,0.975,0.975v10.165
					C115.938,376.138,115.501,376.574,114.963,376.574z"/>
				<path style="fill:#D9717E;" d="M114.963,393.162h-10.165c-0.539,0-0.975-0.437-0.975-0.975v-10.165
					c0-0.539,0.437-0.975,0.975-0.975h10.165c0.539,0,0.975,0.437,0.975,0.975v10.165
					C115.938,392.726,115.501,393.162,114.963,393.162z"/>
				<path style="fill:#D9717E;" d="M114.963,409.75h-10.165c-0.539,0-0.975-0.437-0.975-0.975V398.61
					c0-0.539,0.437-0.975,0.975-0.975h10.165c0.539,0,0.975,0.437,0.975,0.975v10.165
					C115.938,409.314,115.501,409.75,114.963,409.75z"/>
				<path style="fill:#D9717E;" d="M130.737,376.574h-10.165c-0.539,0-0.975-0.437-0.975-0.975v-10.165
					c0-0.539,0.437-0.975,0.975-0.975h10.165c0.539,0,0.975,0.437,0.975,0.975v10.165
					C131.713,376.138,131.276,376.574,130.737,376.574z"/>
				<path style="fill:#D9717E;" d="M130.737,393.162h-10.165c-0.539,0-0.975-0.437-0.975-0.975v-10.165
					c0-0.539,0.437-0.975,0.975-0.975h10.165c0.539,0,0.975,0.437,0.975,0.975v10.165
					C131.713,392.726,131.276,393.162,130.737,393.162z"/>
				<path style="fill:#D9717E;" d="M130.737,409.75h-10.165c-0.539,0-0.975-0.437-0.975-0.975V398.61
					c0-0.539,0.437-0.975,0.975-0.975h10.165c0.539,0,0.975,0.437,0.975,0.975v10.165
					C131.713,409.314,131.276,409.75,130.737,409.75z"/>
				<path style="fill:#D9717E;" d="M146.512,376.574h-10.165c-0.539,0-0.975-0.437-0.975-0.975v-10.165
					c0-0.539,0.437-0.975,0.975-0.975h10.165c0.539,0,0.975,0.437,0.975,0.975v10.165
					C147.488,376.138,147.051,376.574,146.512,376.574z"/>
				<path style="fill:#D9717E;" d="M146.512,393.162h-10.165c-0.539,0-0.975-0.437-0.975-0.975v-10.165
					c0-0.539,0.437-0.975,0.975-0.975h10.165c0.539,0,0.975,0.437,0.975,0.975v10.165
					C147.488,392.726,147.051,393.162,146.512,393.162z"/>
				<path style="fill:#D9717E;" d="M146.512,409.75h-10.165c-0.539,0-0.975-0.437-0.975-0.975V398.61
					c0-0.539,0.437-0.975,0.975-0.975h10.165c0.539,0,0.975,0.437,0.975,0.975v10.165
					C147.488,409.314,147.051,409.75,146.512,409.75z"/>
				<path style="fill:#D9717E;" d="M162.287,376.574h-10.165c-0.539,0-0.975-0.437-0.975-0.975v-10.165
					c0-0.539,0.437-0.975,0.975-0.975h10.165c0.539,0,0.975,0.437,0.975,0.975v10.165
					C163.262,376.138,162.826,376.574,162.287,376.574z"/>
				<path style="fill:#D9717E;" d="M162.287,393.162h-10.165c-0.539,0-0.975-0.437-0.975-0.975v-10.165
					c0-0.539,0.437-0.975,0.975-0.975h10.165c0.539,0,0.975,0.437,0.975,0.975v10.165
					C163.262,392.726,162.826,393.162,162.287,393.162z"/>
				<path style="fill:#D9717E;" d="M162.287,409.75h-10.165c-0.539,0-0.975-0.437-0.975-0.975V398.61
					c0-0.539,0.437-0.975,0.975-0.975h10.165c0.539,0,0.975,0.437,0.975,0.975v10.165
					C163.262,409.314,162.826,409.75,162.287,409.75z"/>
				<path style="fill:#D9717E;" d="M178.062,376.574h-10.165c-0.539,0-0.975-0.437-0.975-0.975v-10.165
					c0-0.539,0.437-0.975,0.975-0.975h10.165c0.539,0,0.975,0.437,0.975,0.975v10.165
					C179.037,376.138,178.6,376.574,178.062,376.574z"/>
				<path style="fill:#D9717E;" d="M178.062,393.162h-10.165c-0.539,0-0.975-0.437-0.975-0.975v-10.165
					c0-0.539,0.437-0.975,0.975-0.975h10.165c0.539,0,0.975,0.437,0.975,0.975v10.165
					C179.037,392.726,178.6,393.162,178.062,393.162z"/>
				<path style="fill:#D9717E;" d="M178.062,409.75h-10.165c-0.539,0-0.975-0.437-0.975-0.975V398.61
					c0-0.539,0.437-0.975,0.975-0.975h10.165c0.539,0,0.975,0.437,0.975,0.975v10.165C179.037,409.314,178.6,409.75,178.062,409.75z
					"/>
				<path style="fill:#D9717E;" d="M193.837,376.574h-10.165c-0.539,0-0.975-0.437-0.975-0.975v-10.165
					c0-0.539,0.437-0.975,0.975-0.975h10.165c0.539,0,0.975,0.437,0.975,0.975v10.165
					C194.812,376.138,194.375,376.574,193.837,376.574z"/>
				<path style="fill:#D9717E;" d="M193.837,393.162h-10.165c-0.539,0-0.975-0.437-0.975-0.975v-10.165
					c0-0.539,0.437-0.975,0.975-0.975h10.165c0.539,0,0.975,0.437,0.975,0.975v10.165
					C194.812,392.726,194.375,393.162,193.837,393.162z"/>
				<path style="fill:#D9717E;" d="M193.837,409.75h-10.165c-0.539,0-0.975-0.437-0.975-0.975V398.61
					c0-0.539,0.437-0.975,0.975-0.975h10.165c0.539,0,0.975,0.437,0.975,0.975v10.165
					C194.812,409.314,194.375,409.75,193.837,409.75z"/>
			</g>
		</g>
	</g>
</g>
</svg>
