<svg width="44" height="44" viewBox="0 0 44 44" fill="none" xmlns="http://www.w3.org/2000/svg">
<path d="M10.9999 40.3327C9.99159 40.3327 9.12809 39.9734 8.40942 39.2547C7.69075 38.536 7.33203 37.6731 7.33326 36.666V7.33269C7.33326 6.32435 7.69259 5.46085 8.41125 4.74219C9.12992 4.02352 9.99281 3.6648 10.9999 3.66602H32.9999C34.0083 3.66602 34.8718 4.02535 35.5904 4.74402C36.3091 5.46269 36.6678 6.32557 36.6666 7.33269V36.666C36.6666 37.6744 36.3073 38.5378 35.5886 39.2565C34.8699 39.9752 34.007 40.3339 32.9999 40.3327H10.9999ZM20.1666 20.166L24.7499 17.416L29.3333 20.166V7.33269H20.1666V20.166Z" fill="#3CD755"/>
</svg>
