<svg width="44" height="44" viewBox="0 0 44 44" fill="none" xmlns="http://www.w3.org/2000/svg">
<g clip-path="url(#clip0_700_3896)">
<path d="M22 23.8327C26.3927 23.8327 30.3875 25.105 33.3263 26.8962C34.793 27.7945 36.047 28.8487 36.9527 29.9945C37.8437 31.1238 38.5 32.4732 38.5 33.916C38.5 35.4652 37.7465 36.6862 36.6612 37.557C35.6345 38.382 34.2797 38.9283 32.8405 39.3097C29.9475 40.0742 26.0865 40.3327 22 40.3327C17.9135 40.3327 14.0525 40.076 11.1595 39.3097C9.72033 38.9283 8.3655 38.382 7.33883 37.557C6.25167 36.6843 5.5 35.4652 5.5 33.916C5.5 32.4732 6.15633 31.1238 7.04733 29.9945C7.953 28.8487 9.20517 27.7945 10.6737 26.8962C13.6125 25.105 17.6092 23.8327 22 23.8327ZM22 3.66602C24.4312 3.66602 26.7627 4.63179 28.4818 6.35087C30.2009 8.06995 31.1667 10.4015 31.1667 12.8327C31.1667 15.2638 30.2009 17.5954 28.4818 19.3145C26.7627 21.0336 24.4312 21.9993 22 21.9993C19.5688 21.9993 17.2373 21.0336 15.5182 19.3145C13.7991 17.5954 12.8333 15.2638 12.8333 12.8327C12.8333 10.4015 13.7991 8.06995 15.5182 6.35087C17.2373 4.63179 19.5688 3.66602 22 3.66602Z" fill="#FF3737" fill-opacity="0.86"/>
</g>
<defs>
<clipPath id="clip0_700_3896">
<rect width="44" height="44" fill="white"/>
</clipPath>
</defs>
</svg>
