<svg width="47" height="47" viewBox="0 0 47 47" fill="none" xmlns="http://www.w3.org/2000/svg">
<path d="M41.3013 13.6678C39.6367 11.8269 36.8559 10.9065 32.8217 10.9065H32.3517V10.8282C32.3517 7.53818 32.3517 3.46484 24.9884 3.46484H22.0117C14.6484 3.46484 14.6484 7.55776 14.6484 10.8282V10.9261H14.1784C10.1246 10.9261 7.36337 11.8465 5.69878 13.6873C3.76003 15.8415 3.81878 18.7398 4.01462 20.7178L4.0342 20.8548L4.20749 22.6744C4.22175 22.8242 4.30209 22.9591 4.42771 23.0419C4.84079 23.3141 5.80203 23.9411 6.34503 24.2428C6.6192 24.419 6.91295 24.5757 7.2067 24.7323C10.5554 26.5732 14.2371 27.8069 17.9775 28.414C18.1538 30.2548 18.9567 32.409 23.2454 32.409C27.5342 32.409 28.3763 30.2744 28.5134 28.3748C32.5084 27.7286 36.3663 26.3382 39.8521 24.3015C39.9696 24.2428 40.048 24.184 40.1459 24.1253C40.983 23.6521 41.854 23.0605 42.633 22.4921C42.7456 22.4099 42.818 22.284 42.8333 22.1455L42.8875 21.6578L42.9855 20.7373C43.005 20.6198 43.005 20.5219 43.0246 20.3848C43.1813 18.4069 43.1421 15.7044 41.3013 13.6678ZM25.6346 27.0823C25.6346 29.1582 25.6346 29.4715 23.2259 29.4715C20.8171 29.4715 20.8171 29.0994 20.8171 27.1019V24.6344H25.6346V27.0823ZM17.4488 10.9065V10.8282C17.4488 7.49901 17.4488 6.26526 22.0117 6.26526H24.9884C29.5513 6.26526 29.5513 7.51859 29.5513 10.8282V10.9261H17.4488V10.9065Z" fill="#41B6FF"/>
<path d="M41.6542 26.524C42.0067 26.3533 42.4113 26.634 42.3759 27.024L41.5953 35.6228C41.184 39.5395 39.5782 43.5345 30.9615 43.5345H16.039C7.42235 43.5345 5.81651 39.5395 5.40526 35.6424L4.66205 27.4671C4.62701 27.0816 5.0219 26.801 5.37351 26.9628C7.33201 27.8641 12.4539 30.1584 15.2859 30.8428C15.451 30.8827 15.5844 30.9999 15.6504 31.1564C16.7871 33.8525 19.4082 35.2899 23.2457 35.2899C27.0451 35.2899 29.7019 33.7972 30.8408 31.0978C30.9069 30.9412 31.0401 30.8241 31.2053 30.7842C34.2048 30.0589 39.6187 27.5097 41.6542 26.524Z" fill="#41B6FF"/>
</svg>
