<svg width="46" height="46" viewBox="0 0 46 46" fill="none" xmlns="http://www.w3.org/2000/svg">
<path d="M42.1666 20.6035C42.9524 20.6035 43.6041 19.9518 43.6041 19.166V17.2493C43.6041 8.79685 41.0358 6.22852 32.5833 6.22852H20.6041V10.541C20.6041 11.3268 19.9524 11.9785 19.1666 11.9785C18.3808 11.9785 17.7291 11.3268 17.7291 10.541V6.22852H13.4166C4.96409 6.22852 2.39575 8.79685 2.39575 17.2493V18.2077C2.39575 18.9935 3.04742 19.6452 3.83325 19.6452C5.67325 19.6452 7.18742 21.1593 7.18742 22.9993C7.18742 24.8393 5.67325 26.3535 3.83325 26.3535C3.04742 26.3535 2.39575 27.0052 2.39575 27.791V28.7493C2.39575 37.2018 4.96409 39.7702 13.4166 39.7702H17.7291V35.4577C17.7291 34.6719 18.3808 34.0202 19.1666 34.0202C19.9524 34.0202 20.6041 34.6719 20.6041 35.4577V39.7702H32.5833C41.0358 39.7702 43.6041 37.2018 43.6041 28.7493C43.6041 27.9635 42.9524 27.3118 42.1666 27.3118C40.3266 27.3118 38.8124 25.7977 38.8124 23.9577C38.8124 22.1177 40.3266 20.6035 42.1666 20.6035ZM20.6041 27.1585C20.6041 27.9443 19.9524 28.596 19.1666 28.596C18.3808 28.596 17.7291 27.9443 17.7291 27.1585V18.8402C17.7291 18.0543 18.3808 17.4027 19.1666 17.4027C19.9524 17.4027 20.6041 18.0543 20.6041 18.8402V27.1585Z" fill="#41B6FF"/>
</svg>
