<svg width="27" height="27" viewBox="0 0 27 27" fill="none" xmlns="http://www.w3.org/2000/svg">
<path d="M13.4424 21.6562C12.9299 21.6562 12.5049 21.2312 12.5049 20.7188V16.9688C12.5049 16.4563 12.9299 16.0312 13.4424 16.0312C13.9549 16.0312 14.3799 16.4563 14.3799 16.9688V20.7188C14.3799 21.2312 13.9549 21.6562 13.4424 21.6562Z" fill="black"/>
<path d="M20.4435 26.4188H6.44355C4.16855 26.4188 2.09355 24.6688 1.71855 22.4313L0.0560542 12.4688C-0.218946 10.9188 0.543554 8.93127 1.78105 7.94377L10.4436 1.00627C12.1185 -0.343728 14.756 -0.331228 16.4435 1.01877L25.106 7.94377C26.331 8.93127 27.081 10.9188 26.831 12.4688L25.1685 22.4188C24.7935 24.6313 22.6685 26.4188 20.4435 26.4188ZM13.431 1.88127C12.7685 1.88127 12.106 2.08127 11.6185 2.46877L2.95605 9.41877C2.25605 9.98127 1.75605 11.2813 1.90605 12.1688L3.56855 22.1188C3.79355 23.4313 5.10605 24.5438 6.44355 24.5438H20.4435C21.781 24.5438 23.0935 23.4313 23.3185 22.1063L24.981 12.1563C25.1185 11.2813 24.6185 9.95627 23.931 9.40627L15.2685 2.48127C14.7685 2.08127 14.0935 1.88127 13.431 1.88127Z" fill="black"/>
</svg>
