<svg width="44" height="44" viewBox="0 0 44 44" fill="none" xmlns="http://www.w3.org/2000/svg">
<path d="M8.20703 8.93788H35.707C36.0283 8.93773 36.3492 8.95811 36.6678 8.99889C36.5598 8.24073 36.2994 7.51229 35.9022 6.8575C35.5051 6.2027 34.9795 5.63511 34.357 5.18895C33.7346 4.74278 33.0283 4.42729 32.2806 4.26148C31.533 4.09568 30.7595 4.083 30.0068 4.22421L7.39062 8.08538H7.36484C5.94522 8.35685 4.68279 9.16005 3.83539 10.3309C5.11207 9.42285 6.64034 8.93586 8.20703 8.93788ZM35.707 11.0004H8.20703C6.74883 11.002 5.35081 11.5819 4.3197 12.6131C3.2886 13.6442 2.70862 15.0422 2.70703 16.5004V33.0004C2.70862 34.4586 3.2886 35.8566 4.3197 36.8877C5.35081 37.9188 6.74883 38.4988 8.20703 38.5004H35.707C37.1652 38.4988 38.5633 37.9188 39.5944 36.8877C40.6255 35.8566 41.2054 34.4586 41.207 33.0004V16.5004C41.2054 15.0422 40.6255 13.6442 39.5944 12.6131C38.5633 11.5819 37.1652 11.002 35.707 11.0004ZM31.625 27.5004C31.0811 27.5004 30.5494 27.3391 30.0972 27.0369C29.6449 26.7347 29.2925 26.3053 29.0843 25.8028C28.8762 25.3003 28.8217 24.7473 28.9278 24.2139C29.0339 23.6804 29.2959 23.1904 29.6805 22.8058C30.0651 22.4212 30.5551 22.1593 31.0885 22.0532C31.622 21.9471 32.1749 22.0016 32.6774 22.2097C33.1799 22.4179 33.6094 22.7703 33.9115 23.2226C34.2137 23.6748 34.375 24.2065 34.375 24.7504C34.375 25.4797 34.0853 26.1792 33.5695 26.6949C33.0538 27.2106 32.3543 27.5004 31.625 27.5004Z" fill="#FF8B4F"/>
<path d="M2.75 22.3008V13.75C2.75 11.8877 3.78125 8.76562 7.36055 8.0893C10.3984 7.51953 13.4062 7.51953 13.4062 7.51953C13.4062 7.51953 15.3828 8.89453 13.75 8.89453C12.1172 8.89453 12.1602 11 13.75 11C15.3398 11 13.75 13.0195 13.75 13.0195L7.34766 20.2812L2.75 22.3008Z" fill="#FF8B4F"/>
</svg>
