<svg width="20" height="20" viewBox="0 0 20 20" fill="none" xmlns="http://www.w3.org/2000/svg">
<rect width="20" height="20" rx="10" fill="#41B6FF"/>
<path fill-rule="evenodd" clip-rule="evenodd" d="M5.91675 5.33366C5.91675 5.02424 6.03966 4.72749 6.25846 4.5087C6.47725 4.28991 6.774 4.16699 7.08341 4.16699H12.9167C13.2262 4.16699 13.5229 4.28991 13.7417 4.5087C13.9605 4.72749 14.0834 5.02424 14.0834 5.33366V6.41866C14.0834 6.89883 13.9648 7.37155 13.7381 7.79488C13.5115 8.2182 13.1839 8.57903 12.7843 8.84533L11.0518 10.0003L12.7843 11.1553C13.1839 11.4216 13.5115 11.7825 13.7381 12.2058C13.9648 12.6291 14.0834 13.1018 14.0834 13.582V14.667C14.0834 14.9764 13.9605 15.2732 13.7417 15.492C13.5229 15.7107 13.2262 15.8337 12.9167 15.8337H7.08341C6.774 15.8337 6.47725 15.7107 6.25846 15.492C6.03966 15.2732 5.91675 14.9764 5.91675 14.667V13.582C5.91674 13.1019 6.03525 12.6292 6.26177 12.2059C6.48829 11.7825 6.8158 11.4217 7.21525 11.1553L8.94891 10.0003L7.21641 8.84533C6.81675 8.57909 6.48901 8.2183 6.26228 7.79497C6.03556 7.37164 5.91687 6.89888 5.91675 6.41866V5.33366ZM10.0001 9.29916L12.1374 7.87408C12.377 7.71434 12.5735 7.49793 12.7095 7.24404C12.8454 6.99016 12.9166 6.70665 12.9167 6.41866V5.33366H7.08341V6.41866C7.08353 6.70665 7.15472 6.99016 7.29067 7.24404C7.42662 7.49793 7.62312 7.71434 7.86275 7.87408L10.0001 9.29916ZM10.0001 10.7015L7.86275 12.1266C7.62312 12.2863 7.42662 12.5027 7.29067 12.7566C7.15472 13.0105 7.08353 13.294 7.08341 13.582V14.667H12.9167V13.582C12.9166 13.294 12.8454 13.0105 12.7095 12.7566C12.5735 12.5027 12.377 12.2863 12.1374 12.1266L10.0001 10.7015Z" fill="white"/>
</svg>
