<svg width="37" height="37" viewBox="0 0 37 37" fill="none" xmlns="http://www.w3.org/2000/svg">
<path d="M2.15356 35.6328C2.80973 36.3439 5.51247 35.1038 7.64575 34.1094C9.24427 33.3665 15.6412 30.7418 18.8209 29.3804C19.6794 29.0133 20.9282 28.5334 21.8272 27.3511C22.625 26.299 24.7409 21.8301 20.4801 17.3033C16.1557 12.7072 11.7013 13.9762 10.0363 15.1556C9.05638 15.8493 8.25856 17.4132 7.90013 18.2081C6.38544 21.567 4.22614 27.7211 3.34739 30.1406C2.70278 31.9241 1.50317 34.9275 2.15356 35.6328Z" fill="#FFC107"/>
<path d="M7.47234 19.2207C7.51281 19.7237 7.61398 20.5417 7.96086 22.1171C8.19789 23.1982 8.58523 24.3313 8.90031 25.08C9.84555 27.3318 11.1723 28.2395 12.5165 28.9679C14.8001 30.2051 16.3523 30.4363 16.3523 30.4363L14.4908 31.1966C14.4908 31.1966 13.3634 30.9624 11.8256 30.2051C10.3601 29.4824 8.83383 28.2597 7.71805 25.8663C7.23531 24.8285 6.95492 23.8226 6.79305 23.0248C6.59359 22.0362 6.5618 21.4754 6.5618 21.4754L7.47234 19.2207ZM5.18586 25.0829C5.18586 25.0829 5.41711 26.9589 6.96648 29.3263C8.7818 32.0955 11.3169 32.5494 11.3169 32.5494L9.63164 33.2431C9.63164 33.2431 7.74984 32.6679 5.96055 30.2253C4.84477 28.702 4.53258 26.8809 4.53258 26.8809L5.18586 25.0829ZM3.58156 29.5287C3.58156 29.5287 4.00359 31.1474 4.92859 32.3557C6.02992 33.7981 7.43187 34.2173 7.43187 34.2173L6.13977 34.7896C6.13977 34.7896 5.15984 34.5844 4.08742 33.2258C3.27227 32.1938 3.04102 31.0087 3.04102 31.0087L3.58156 29.5287Z" fill="#FF8F00"/>
<path opacity="0.44" d="M2.87894 33.6378C2.82113 33.5077 2.82113 33.3603 2.88183 33.2331L10.2443 17.9648L11.4554 22.5176L3.70855 33.7072C3.50043 34.0194 3.03215 33.9789 2.87894 33.6378Z" fill="#FFFDE7"/>
<path d="M12.0393 24.0466C15.4792 28.0703 19.396 27.5674 20.6997 26.5499C22.0062 25.5295 23.0382 22.0231 19.6128 18.0659C16.0226 13.9207 11.9584 15.103 11.0189 15.9991C10.0795 16.8952 8.88278 20.3553 12.0393 24.0466Z" fill="url(#paint0_linear_731_3967)"/>
<path d="M23.8534 25.7025C22.5989 24.6503 21.9312 24.8382 21.0351 25.2111C19.8788 25.6909 18.0606 26.0465 15.592 25.2111L16.3349 23.4218C17.8005 23.9161 18.8613 23.6762 19.7777 23.1356C20.957 22.4419 22.57 21.4909 25.0791 23.5981C26.1255 24.4769 27.1979 25.0608 27.9842 24.7948C28.5565 24.6041 28.86 23.7513 29.0132 23.072C29.0277 23.0113 29.0508 22.8379 29.0681 22.6847C29.2069 21.6238 29.4381 19.3345 31.1436 18.1638C32.9676 16.9121 34.8841 16.9121 34.8841 16.9121L35.2309 20.3577C34.3493 20.2277 33.7365 20.4069 33.2191 20.693C31.2708 21.777 32.9676 25.9395 29.9353 27.3386C27.0187 28.6943 24.6339 26.3558 23.8534 25.7025Z" fill="#03A9F4"/>
<path d="M13.1233 21.3097L11.8688 20.1852C14.1726 17.6126 13.5656 15.7221 13.1233 14.3462C13.0337 14.0687 12.9499 13.8056 12.895 13.5541C12.6984 12.6638 12.6579 11.8891 12.7186 11.2127C11.8341 10.1114 11.4439 8.95805 11.4179 8.88C10.8802 7.25258 11.2849 5.66562 12.2128 4.17695C14.0888 1.15625 17.4853 1.15625 17.4853 1.15625L18.6184 4.18852C17.757 4.15383 14.9329 4.19719 14.0657 5.56445C12.9701 7.28727 13.6899 8.35102 13.7419 8.47242C13.9529 8.19781 14.1669 7.97813 14.3576 7.80758C15.7422 6.57906 16.9447 6.40273 17.7108 6.47211C18.5722 6.55016 19.3526 6.98375 19.9105 7.69484C20.5204 8.47531 20.7719 9.48992 20.5783 10.412C20.3904 11.311 19.792 12.0713 18.893 12.554C17.3234 13.398 16.0169 13.2824 15.141 12.9905C15.1468 13.0107 15.1497 13.0338 15.1554 13.0541C15.1872 13.1986 15.2508 13.4009 15.326 13.6351C15.8376 15.2191 16.7886 17.734 13.1233 21.3097ZM15.2479 10.4612C15.4156 10.5826 15.5919 10.6837 15.774 10.756C16.3811 10.9988 17.043 10.9179 17.7946 10.5132C18.2369 10.2762 18.2889 10.0218 18.3062 9.93797C18.3583 9.68648 18.2715 9.36562 18.0836 9.1257C17.9189 8.91469 17.7281 8.80484 17.4997 8.78172C17.0661 8.74414 16.4794 9.01875 15.8926 9.54195C15.6122 9.79344 15.3983 10.1027 15.2479 10.4612Z" fill="#F44336"/>
<path d="M18.1444 21.7803L16.3494 21.7312C16.3494 21.7312 17.2021 16.9154 19.9626 16.106C20.4801 15.9557 21.0466 15.8025 21.6161 15.7187C21.9543 15.6666 22.4891 15.5886 22.7521 15.4903C22.8128 15.0365 22.622 14.4584 22.4081 13.8022C22.2405 13.2934 22.067 12.7702 21.9745 12.1979C21.7953 11.0821 22.093 10.0964 22.8128 9.41711C23.6916 8.59328 25.1109 8.33023 26.7123 8.69445C27.6257 8.90258 28.2992 9.35062 28.8918 9.74375C29.7387 10.3074 30.233 10.5936 31.2679 9.89695C32.5195 9.05289 30.8834 5.74891 30.0133 3.84109L33.2595 2.48828C33.696 3.44219 35.8033 8.35047 34.4129 11.1515C33.9446 12.0938 33.1381 12.7182 32.0801 12.9523C29.7792 13.4669 28.4322 12.5708 27.4494 11.9175C26.984 11.6082 26.5764 11.3654 26.1341 11.2382C23.0614 10.3623 27.3511 14.8833 25.3421 16.9154C24.1367 18.1323 21.1912 18.4532 21.0004 18.4995C19.1041 18.9562 18.1444 21.7803 18.1444 21.7803Z" fill="#F48FB1"/>
<path d="M12.7158 11.2129C12.6609 11.8488 12.6348 12.2275 12.7996 13.0542C13.5945 13.6381 15.326 13.6381 15.326 13.6381C15.2509 13.404 15.1844 13.2016 15.1555 13.0571C15.1497 13.0369 15.1468 13.0137 15.141 12.9935C13.3806 12.1148 12.7158 11.2129 12.7158 11.2129Z" fill="#C92B27"/>
<path d="M9.11415 14.0595L6.12524 12.594L7.61392 10.4434L9.95821 11.9956L9.11415 14.0595Z" fill="#FFC107"/>
<path d="M4.70874 10.0018C3.18249 9.79656 1.62733 8.50156 1.45679 8.35414L2.95702 6.59375C3.41085 6.9782 4.37343 7.62281 5.01804 7.70953L4.70874 10.0018Z" fill="#FB8C00"/>
<path d="M7.40293 6.1482L5.20605 5.42844C5.45754 4.65953 5.52402 3.82992 5.39395 3.02922L7.67754 2.66211C7.86543 3.82414 7.77004 5.02953 7.40293 6.1482Z" fill="#03A9F4"/>
<path d="M21.1226 4.42984L23.3816 3.93555L24.034 6.91752L21.775 7.41181L21.1226 4.42984Z" fill="#FB8C00"/>
<path d="M26.7268 5.13711L25.137 3.45766C25.9695 2.66852 26.1602 1.63656 26.1602 1.625L28.4438 1.99789C28.4149 2.18 28.123 3.81609 26.7268 5.13711Z" fill="#FFC107"/>
<path d="M27.6096 14.0434L29.6293 13.4121L30.319 15.6194L28.2993 16.2507L27.6096 14.0434Z" fill="#FB8C00"/>
<path d="M28.198 32.6736L25.9 32.4019C25.9983 31.5838 25.3884 30.5808 25.2207 30.3582L27.0707 28.9707C27.2095 29.1528 28.4148 30.8207 28.198 32.6736Z" fill="#F44336"/>
<path d="M34.7946 29.7421C33.9303 29.612 33.0457 29.56 32.1728 29.5918L32.0947 27.2793C33.1093 27.2446 34.1355 27.3024 35.1386 27.4556L34.7946 29.7421Z" fill="#FB8C00"/>
<path d="M31.6853 32.9249L33.3098 31.2793L35.5457 33.4872L33.9212 35.1325L31.6853 32.9249Z" fill="#F48FB1"/>
<path d="M26.9126 18.3066L28.5834 20.2171L26.673 21.8878L25.0022 19.9774L26.9126 18.3066Z" fill="#F44336"/>
<defs>
<linearGradient id="paint0_linear_731_3967" x1="21.5015" y1="17.8748" x2="12.897" y2="23.0375" gradientUnits="userSpaceOnUse">
<stop offset="0.024" stop-color="#8F4700"/>
<stop offset="1" stop-color="#703E2D"/>
</linearGradient>
</defs>
</svg>
