<svg width="23" height="23" viewBox="0 0 23 23" fill="none" xmlns="http://www.w3.org/2000/svg">
<path d="M8.6255 10.0618C8.6255 9.87119 8.70122 9.68837 8.83601 9.55358C8.97081 9.41879 9.15362 9.34306 9.34425 9.34306H13.6567C13.8474 9.34306 14.0302 9.41879 14.165 9.55358C14.2998 9.68837 14.3755 9.87119 14.3755 10.0618C14.3755 10.2524 14.2998 10.4353 14.165 10.57C14.0302 10.7048 13.8474 10.7806 13.6567 10.7806H9.34425C9.15362 10.7806 8.97081 10.7048 8.83601 10.57C8.70122 10.4353 8.6255 10.2524 8.6255 10.0618ZM9.34425 12.2181C9.15362 12.2181 8.97081 12.2938 8.83601 12.4286C8.70122 12.5634 8.6255 12.7462 8.6255 12.9368C8.6255 13.1274 8.70122 13.3103 8.83601 13.445C8.97081 13.5798 9.15362 13.6556 9.34425 13.6556H12.2192C12.4099 13.6556 12.5927 13.5798 12.7275 13.445C12.8623 13.3103 12.938 13.1274 12.938 12.9368C12.938 12.7462 12.8623 12.5634 12.7275 12.4286C12.5927 12.2938 12.4099 12.2181 12.2192 12.2181H9.34425ZM2.8755 11.4993C2.87586 9.60044 3.50286 7.75477 4.65922 6.2486C5.81558 4.74243 7.43666 3.65996 9.27099 3.16912C11.1053 2.67827 13.0504 2.80649 14.8044 3.53387C16.5584 4.26126 18.0234 5.54715 18.972 7.19208C19.9207 8.837 20.3 10.749 20.0511 12.6315C19.8022 14.514 18.939 16.2617 17.5955 17.6036C16.2519 18.9455 14.5031 19.8064 12.6203 20.053C10.7375 20.2995 8.82598 19.9178 7.18225 18.9671L3.82137 20.0884C3.6972 20.1298 3.56407 20.1366 3.43634 20.1079C3.30862 20.0793 3.19114 20.0162 3.0966 19.9257C3.00206 19.8352 2.93404 19.7205 2.89989 19.5941C2.86574 19.4678 2.86675 19.3345 2.90281 19.2086L3.92631 15.6278C3.23489 14.3617 2.87351 12.9419 2.8755 11.4993ZM11.5005 4.31181C10.2314 4.31173 8.98499 4.64766 7.88785 5.28544C6.79071 5.92322 5.88198 6.84012 5.25406 7.94294C4.62613 9.04575 4.30139 10.2952 4.31284 11.5642C4.32429 12.8332 4.67152 14.0765 5.31925 15.1678C5.36908 15.2521 5.40116 15.3457 5.41352 15.4429C5.42588 15.54 5.41826 15.6387 5.39112 15.7328L4.65943 18.2915L7.04281 17.498C7.14403 17.4642 7.2515 17.4534 7.35742 17.4663C7.46335 17.4793 7.56506 17.5156 7.65518 17.5728C8.59713 18.1689 9.66483 18.5377 10.7739 18.6502C11.8829 18.7626 13.0029 18.6155 14.0454 18.2206C15.0878 17.8256 16.024 17.1936 16.7802 16.3745C17.5363 15.5554 18.0915 14.5717 18.402 13.501C18.7124 12.4304 18.7696 11.3022 18.5689 10.2057C18.3683 9.10917 17.9154 8.07434 17.246 7.183C16.5765 6.29165 15.7089 5.56824 14.7118 5.06993C13.7146 4.57162 12.6152 4.31207 11.5005 4.31181Z" fill="#292D32"/>
</svg>
