<svg width="22" height="21" viewBox="0 0 22 21" fill="none" xmlns="http://www.w3.org/2000/svg">
<g clip-path="url(#clip0_588_3150)">
<path d="M11.8881 2.75488C12.5343 2.75485 13.156 3.00173 13.6261 3.44501C14.0963 3.88829 14.3792 4.49446 14.4171 5.1395L14.4213 5.28811V8.66575H16.1102C16.7309 8.66565 17.3301 8.89347 17.794 9.30597C18.2578 9.71847 18.5541 10.2869 18.6265 10.9034L18.6392 11.0504L18.6434 11.199L18.6265 11.3645L17.777 15.6136C17.4553 16.9866 16.5087 17.9745 15.4042 17.961L15.2658 17.9543H8.51048C8.30365 17.9542 8.10403 17.8783 7.94948 17.7409C7.79492 17.6034 7.69618 17.4141 7.67198 17.2086L7.66607 17.1099L7.66691 9.05756C7.66707 8.90948 7.70615 8.76405 7.78026 8.63584C7.85436 8.50764 7.96088 8.40118 8.08912 8.32714C8.44919 8.11918 8.7525 7.82573 8.97223 7.47271C9.19197 7.1197 9.32136 6.71799 9.34898 6.30309L9.35489 6.13252V5.28811C9.35489 4.61626 9.62178 3.97192 10.0969 3.49685C10.5719 3.02178 11.2163 2.75488 11.8881 2.75488ZM5.13284 8.66575C5.33966 8.66578 5.53928 8.74171 5.69384 8.87915C5.8484 9.01658 5.94714 9.20596 5.97134 9.41137L5.97725 9.51016V17.1099C5.97722 17.3167 5.90129 17.5163 5.76385 17.6709C5.62642 17.8254 5.43704 17.9242 5.23163 17.9483L5.13284 17.9543H4.28843C3.86236 17.9544 3.45198 17.7935 3.13957 17.5038C2.82715 17.2141 2.63579 16.817 2.60383 16.3921L2.59961 16.2654V10.3546C2.59947 9.9285 2.76039 9.51813 3.0501 9.20571C3.33981 8.8933 3.7369 8.70193 4.16177 8.66997L4.28843 8.66575H5.13284Z" fill="#ED1C24"/>
</g>
<defs>
<clipPath id="clip0_588_3150">
<rect width="20.2658" height="20.2658" fill="white" transform="translate(0.911133 0.22168)"/>
</clipPath>
</defs>
</svg>
